<?xml version="1.0" encoding="UTF-8" ?>
<!DOCTYPE svg PUBLIC "-//W3C//DTD SVG 1.1//EN" "http://www.w3.org/Graphics/SVG/1.1/DTD/svg11.dtd">
<svg width="171pt" height="172pt" viewBox="0 0 171 172" version="1.1" xmlns="http://www.w3.org/2000/svg">
<!-- <g fill="#F0f">
<path opacity="1.00" d=" M 68.99 15.04 C 72.29 10.72 77.38 7.28 82.99 7.50 C 87.59 7.33 92.06 9.54 94.92 13.10 C 100.65 19.99 103.80 28.61 106.09 37.16 C 106.97 41.98 108.73 47.46 106.01 52.00 C 104.54 54.36 104.59 57.57 102.43 59.47 C 102.41 58.91 102.39 57.79 102.37 57.23 C 102.42 54.30 101.85 51.42 101.32 48.55 C 104.63 39.25 101.45 29.33 96.96 21.04 C 94.28 16.24 90.15 11.62 84.50 10.60 C 79.05 9.96 73.63 13.16 70.74 17.68 C 66.46 24.27 63.47 31.79 62.56 39.61 C 62.11 42.69 63.36 45.62 64.49 48.41 C 63.81 50.94 63.42 53.53 63.30 56.15 C 63.21 57.23 63.12 58.31 63.01 59.40 C 61.14 53.89 56.66 48.60 58.20 42.49 C 60.15 32.82 63.15 23.11 68.99 15.04 Z" />
<path opacity="1.00" d=" M 79.55 39.61 C 81.15 38.49 83.25 38.07 85.03 39.06 C 89.66 41.25 93.57 44.68 98.11 47.04 C 98.99 48.95 99.85 50.87 100.67 52.82 C 95.10 54.43 91.81 48.74 88.66 45.25 C 86.65 42.69 82.58 39.86 79.60 42.62 C 76.73 45.51 75.40 49.63 72.21 52.27 C 69.83 54.64 66.51 55.55 63.30 56.15 C 64.95 52.46 66.66 48.80 68.57 45.25 C 72.69 44.34 76.06 41.81 79.55 39.61 Z" />
<path opacity="1.00" d=" M 37.30 63.09 C 43.08 61.49 48.53 64.80 53.23 67.74 C 51.66 70.33 50.27 73.05 48.64 75.61 C 45.89 79.84 40.96 81.95 37.99 85.98 C 36.75 87.56 37.23 90.02 38.73 91.26 C 41.50 93.84 44.93 95.75 47.18 98.87 C 49.51 102.08 51.49 105.54 53.92 108.69 C 50.24 109.35 47.18 111.73 43.58 112.55 C 35.09 113.09 26.93 110.02 19.17 106.93 C 13.00 104.30 6.25 100.99 3.43 94.47 C -0.45 87.76 3.01 79.15 8.64 74.60 C 17.01 68.36 27.29 65.49 37.30 63.09 M 10.87 76.90 C 6.52 80.18 4.41 86.11 5.69 91.40 C 6.83 95.36 9.76 98.60 13.21 100.76 C 19.90 104.95 27.59 107.46 35.41 108.44 C 38.27 108.88 40.87 107.39 43.38 106.29 C 45.94 106.99 48.54 107.53 51.18 107.75 C 48.82 106.42 46.34 105.33 43.86 104.24 C 42.82 97.65 35.08 94.61 34.30 88.00 C 35.07 81.29 42.69 78.20 44.04 71.67 C 46.21 70.81 48.34 69.79 50.21 68.38 C 47.70 68.50 45.24 69.03 42.84 69.74 C 40.87 68.30 38.65 66.99 36.11 67.41 C 27.08 68.25 18.13 71.40 10.87 76.90 Z" />
<path opacity="1.00" d=" M 76.28 63.08 C 85.28 61.28 95.49 63.15 101.79 70.25 C 111.38 80.31 110.45 97.99 100.27 107.30 C 89.93 116.53 72.03 115.68 63.18 104.77 C 58.13 98.18 55.06 89.22 57.84 81.07 C 60.17 72.41 67.30 64.76 76.28 63.08 M 77.39 65.65 C 71.54 67.05 65.94 70.61 63.10 76.05 C 59.76 81.51 59.78 88.27 60.81 94.39 C 62.87 101.85 69.16 108.12 76.62 110.18 C 83.59 111.50 91.40 110.57 97.10 106.06 C 103.33 101.24 106.45 92.99 105.51 85.23 C 104.92 78.00 100.43 71.45 94.17 67.90 C 89.21 64.71 83.00 64.99 77.39 65.65 Z" />
<path opacity="1.00" d=" M 114.54 67.97 C 117.37 64.85 121.38 62.19 125.79 62.95 C 136.14 64.75 146.50 67.80 155.30 73.70 C 159.61 76.79 163.61 81.32 163.45 86.97 C 164.23 93.75 159.52 99.69 154.09 103.13 C 147.15 107.24 139.55 110.21 131.66 111.89 C 128.09 112.62 124.26 113.86 120.68 112.54 C 117.66 111.37 114.86 109.71 111.95 108.30 C 115.98 104.11 117.85 98.09 122.95 94.92 C 125.40 92.97 129.28 91.01 128.63 87.27 C 127.53 83.71 123.72 82.20 121.20 79.80 C 118.00 77.06 115.14 73.34 115.38 68.89 C 117.56 69.90 119.77 70.86 121.99 71.78 C 124.06 76.52 127.77 80.21 130.47 84.55 C 132.18 87.12 131.37 90.39 129.69 92.74 C 126.71 97.06 123.36 101.12 119.98 105.13 C 117.96 106.06 115.92 106.93 113.91 107.89 C 116.68 107.53 119.43 107.05 122.14 106.37 C 128.18 110.56 135.76 107.98 142.08 105.91 C 148.66 103.28 156.14 100.21 159.32 93.37 C 162.63 86.84 158.68 78.81 152.77 75.31 C 145.87 71.09 138.08 67.83 129.94 67.34 C 127.19 67.01 124.71 68.34 122.40 69.62 C 119.80 68.97 117.16 68.51 114.54 67.97 Z" />
<path opacity="1.00" d=" M 63.50 120.04 C 70.18 120.52 74.28 126.16 78.15 130.91 C 79.74 133.16 83.29 134.94 85.56 132.56 C 89.71 128.56 93.06 123.72 97.98 120.55 C 98.89 120.72 100.70 121.06 101.61 121.23 C 100.59 123.53 99.51 125.79 98.46 128.07 C 93.68 129.67 90.08 133.27 85.91 135.91 C 83.43 137.50 80.24 136.64 78.09 134.90 C 74.43 132.07 70.93 128.95 66.63 127.12 C 65.55 124.77 64.48 122.42 63.50 120.04 Z" />
<path opacity="1.00" d=" M 58.51 131.00 C 58.26 127.30 58.78 122.54 63.24 121.81 C 63.65 123.77 64.09 125.71 64.52 127.67 C 63.42 131.88 62.07 136.29 63.40 140.63 C 65.47 148.49 68.57 156.70 74.81 162.21 C 80.51 167.27 90.03 165.26 94.04 159.05 C 100.22 150.01 105.06 138.44 101.20 127.49 C 101.60 125.49 102.04 123.50 102.44 121.50 C 104.59 122.74 106.92 124.35 107.18 127.07 C 107.80 132.38 106.30 137.68 104.94 142.78 C 102.43 150.31 99.48 158.06 93.86 163.86 C 89.35 167.76 82.58 169.72 76.93 167.22 C 70.62 164.69 67.21 158.29 64.40 152.51 C 61.52 145.66 58.74 138.51 58.51 131.00 Z" />
</g> -->
<!-- <g id="#080c2bff">
<path fill="#080c2b" opacity="1.00" d=" M 52.63 0.00 L 171.00 0.00 L 171.00 172.00 L 0.00 172.00 L 0.00 5.02 C 13.41 5.05 26.66 7.41 40.02 8.29 C 43.44 8.49 46.94 9.07 50.34 8.37 C 51.49 5.70 51.90 2.80 52.63 0.00 M 68.99 15.04 C 63.15 23.11 60.15 32.82 58.20 42.49 C 56.66 48.60 61.14 53.89 63.01 59.40 C 63.12 58.31 63.21 57.23 63.30 56.15 C 66.51 55.55 69.83 54.64 72.21 52.27 C 75.40 49.63 76.73 45.51 79.60 42.62 C 82.58 39.86 86.65 42.69 88.66 45.25 C 91.81 48.74 95.10 54.43 100.67 52.82 C 101.28 54.27 101.80 55.76 102.37 57.23 C 102.39 57.79 102.41 58.91 102.43 59.47 C 104.59 57.57 104.54 54.36 106.01 52.00 C 108.73 47.46 106.97 41.98 106.09 37.16 C 103.80 28.61 100.65 19.99 94.92 13.10 C 92.06 9.54 87.59 7.33 82.99 7.50 C 77.38 7.28 72.29 10.72 68.99 15.04 M 37.30 63.09 C 27.29 65.49 17.01 68.36 8.64 74.60 C 3.01 79.15 -0.45 87.76 3.43 94.47 C 6.25 100.99 13.00 104.30 19.17 106.93 C 26.93 110.02 35.09 113.09 43.58 112.55 C 47.18 111.73 50.24 109.35 53.92 108.69 C 51.49 105.54 49.51 102.08 47.18 98.87 C 44.93 95.75 41.50 93.84 38.73 91.26 C 37.23 90.02 36.75 87.56 37.99 85.98 C 40.96 81.95 45.89 79.84 48.64 75.61 C 50.27 73.05 51.66 70.33 53.23 67.74 C 48.53 64.80 43.08 61.49 37.30 63.09 M 76.28 63.08 C 67.30 64.76 60.17 72.41 57.84 81.07 C 55.06 89.22 58.13 98.18 63.18 104.77 C 72.03 115.68 89.93 116.53 100.27 107.30 C 110.45 97.99 111.38 80.31 101.79 70.25 C 95.49 63.15 85.28 61.28 76.28 63.08 M 114.54 67.97 C 114.12 67.89 113.29 67.72 112.88 67.64 C 113.70 68.08 114.53 68.50 115.38 68.89 C 115.14 73.34 118.00 77.06 121.20 79.80 C 123.72 82.20 127.53 83.71 128.63 87.27 C 129.28 91.01 125.40 92.97 122.95 94.92 C 117.85 98.09 115.98 104.11 111.95 108.30 C 114.86 109.71 117.66 111.37 120.68 112.54 C 124.26 113.86 128.09 112.62 131.66 111.89 C 139.55 110.21 147.15 107.24 154.09 103.13 C 159.52 99.69 164.23 93.75 163.45 86.97 C 163.61 81.32 159.61 76.79 155.30 73.70 C 146.50 67.80 136.14 64.75 125.79 62.95 C 121.38 62.19 117.37 64.85 114.54 67.97 M 62.29 117.10 C 62.58 118.68 62.90 120.25 63.24 121.81 C 58.78 122.54 58.26 127.30 58.51 131.00 C 58.74 138.51 61.52 145.66 64.40 152.51 C 67.21 158.29 70.62 164.69 76.93 167.22 C 82.58 169.72 89.35 167.76 93.86 163.86 C 99.48 158.06 102.43 150.31 104.94 142.78 C 106.30 137.68 107.80 132.38 107.18 127.07 C 106.92 124.35 104.59 122.74 102.44 121.50 C 102.70 120.08 103.01 118.67 103.32 117.27 C 102.76 118.59 102.19 119.91 101.61 121.23 C 100.70 121.06 98.89 120.72 97.98 120.55 C 93.06 123.72 89.71 128.56 85.56 132.56 C 83.29 134.94 79.74 133.16 78.15 130.91 C 74.28 126.16 70.18 120.52 63.50 120.04 C 63.10 119.06 62.70 118.08 62.29 117.10 Z" />
</g> -->
<!-- <g fill="#0F0">
<path opacity="1.00" d=" M 70.74 17.68 C 73.63 13.16 79.05 9.96 84.50 10.60 C 90.15 11.62 94.28 16.24 96.96 21.04 C 101.45 29.33 104.63 39.25 101.32 48.55 C 98.02 39.21 96.58 29.10 91.42 20.49 C 89.50 17.60 86.77 14.40 83.00 14.35 C 79.39 14.20 76.69 17.15 74.86 19.92 C 69.28 28.51 67.41 38.75 64.49 48.41 C 63.36 45.62 62.11 42.69 62.56 39.61 C 63.47 31.79 66.46 24.27 70.74 17.68 Z" />
<path opacity="1.00" d=" M 75.37 36.24 C 78.71 33.91 83.05 34.07 86.89 34.68 C 92.64 36.29 95.76 42.00 98.11 47.04 C 93.57 44.68 89.66 41.25 85.03 39.06 C 83.25 38.07 81.15 38.49 79.55 39.61 C 76.06 41.81 72.69 44.34 68.57 45.25 C 70.30 41.91 72.14 38.37 75.37 36.24 Z" />
<path opacity="1.00" d=" M 77.39 65.65 C 83.00 64.99 89.21 64.71 94.17 67.90 C 100.43 71.45 104.92 78.00 105.51 85.23 C 106.45 92.99 103.33 101.24 97.10 106.06 C 91.40 110.57 83.59 111.50 76.62 110.18 C 69.16 108.12 62.87 101.85 60.81 94.39 C 59.78 88.27 59.76 81.51 63.10 76.05 C 65.94 70.61 71.54 67.05 77.39 65.65 M 78.29 70.09 C 70.41 72.12 64.27 79.78 64.46 88.00 C 64.28 97.16 71.92 105.44 80.99 106.34 C 91.32 107.45 101.43 98.42 101.48 88.04 C 101.98 76.51 89.25 66.98 78.29 70.09 Z" />
<path opacity="1.00" d=" M 10.87 76.90 C 18.13 71.40 27.08 68.25 36.11 67.41 C 38.65 66.99 40.87 68.30 42.84 69.74 C 33.42 72.73 23.30 74.27 14.92 79.87 C 12.15 81.72 9.13 84.35 9.21 87.99 C 9.13 91.64 12.27 94.18 15.01 96.04 C 23.60 101.52 33.76 103.42 43.38 106.29 C 40.87 107.39 38.27 108.88 35.41 108.44 C 27.59 107.46 19.90 104.95 13.21 100.76 C 9.76 98.60 6.83 95.36 5.69 91.40 C 4.41 86.11 6.52 80.18 10.87 76.90 Z" />
<path opacity="1.00" d=" M 122.40 69.62 C 124.71 68.34 127.19 67.01 129.94 67.34 C 138.08 67.83 145.87 71.09 152.77 75.31 C 158.68 78.81 162.63 86.84 159.32 93.37 C 156.14 100.21 148.66 103.28 142.08 105.91 C 135.76 107.98 128.18 110.56 122.14 106.37 C 130.74 103.73 139.71 102.00 147.72 97.75 C 151.13 95.90 154.62 93.51 156.20 89.82 C 157.54 85.71 153.91 82.27 150.92 80.07 C 142.42 74.28 132.05 72.59 122.40 69.62 Z" />
<path opacity="1.00" d=" M 31.65 79.68 C 35.05 76.06 39.44 73.48 44.04 71.67 C 42.69 78.20 35.07 81.29 34.30 88.00 C 35.08 94.61 42.82 97.65 43.86 104.24 C 39.18 102.25 34.54 99.67 31.27 95.68 C 27.65 91.12 27.75 84.04 31.65 79.68 Z" />
<path opacity="1.00" d=" M 121.99 71.78 C 126.31 73.50 130.45 75.89 133.68 79.29 C 137.43 82.96 137.25 88.99 135.82 93.64 C 132.43 99.47 125.90 102.48 119.98 105.13 C 123.36 101.12 126.71 97.06 129.69 92.74 C 131.37 90.39 132.18 87.12 130.47 84.55 C 127.77 80.21 124.06 76.52 121.99 71.78 Z" />
<path opacity="1.00" d=" M 66.63 127.12 C 70.93 128.95 74.43 132.07 78.09 134.90 C 80.24 136.64 83.43 137.50 85.91 135.91 C 90.08 133.27 93.68 129.67 98.46 128.07 C 96.59 132.35 94.27 136.64 90.49 139.53 C 86.99 142.26 82.18 141.88 78.05 141.29 C 72.24 138.74 69.21 132.57 66.63 127.12 Z" />
<path opacity="1.00" d=" M 64.52 127.67 C 67.47 137.27 69.35 147.46 74.92 156.01 C 76.65 158.46 78.82 161.23 82.00 161.64 C 85.64 162.03 88.54 159.19 90.53 156.50 C 96.58 147.90 97.82 137.21 101.20 127.49 C 105.06 138.44 100.22 150.01 94.04 159.05 C 90.03 165.26 80.51 167.27 74.81 162.21 C 68.57 156.70 65.47 148.49 63.40 140.63 C 62.07 136.29 63.42 131.88 64.52 127.67 Z" />
</g> -->
<path fill="#fefdf6" opacity="1.00" d=" M 74.86 19.92 C 76.69 17.15 79.39 14.20 83.00 14.35 C 86.77 14.40 89.50 17.60 91.42 20.49 C 96.58 29.10 98.02 39.21 101.32 48.55 C 101.85 51.42 102.42 54.30 102.37 57.23 C 101.80 55.76 101.28 54.27 100.67 52.82 C 99.85 50.87 98.99 48.95 98.11 47.04 C 95.76 42.00 92.64 36.29 86.89 34.68 C 83.05 34.07 78.71 33.91 75.37 36.24 C 72.14 38.37 70.30 41.91 68.57 45.25 C 66.66 48.80 64.95 52.46 63.30 56.15 C 63.42 53.53 63.81 50.94 64.49 48.41 C 67.41 38.75 69.28 28.51 74.86 19.92 Z" />
<path fill="#fefdf6" opacity="1.00" d=" M 112.88 67.64 C 113.29 67.72 114.12 67.89 114.54 67.97 C 117.16 68.51 119.80 68.97 122.40 69.62 C 132.05 72.59 142.42 74.28 150.92 80.07 C 153.91 82.27 157.54 85.71 156.20 89.82 C 154.62 93.51 151.13 95.90 147.72 97.75 C 139.71 102.00 130.74 103.73 122.14 106.37 C 119.43 107.05 116.68 107.53 113.91 107.89 C 115.92 106.93 117.96 106.06 119.98 105.13 C 125.90 102.48 132.43 99.47 135.82 93.64 C 137.25 88.99 137.43 82.96 133.68 79.29 C 130.45 75.89 126.31 73.50 121.99 71.78 C 119.77 70.86 117.56 69.90 115.38 68.89 C 114.53 68.50 113.70 68.08 112.88 67.64 Z" />
<path fill="#fefdf6" opacity="1.00" d=" M 42.84 69.74 C 45.24 69.03 47.70 68.50 50.21 68.38 C 48.34 69.79 46.21 70.81 44.04 71.67 C 39.44 73.48 35.05 76.06 31.65 79.68 C 27.75 84.04 27.65 91.12 31.27 95.68 C 34.54 99.67 39.18 102.25 43.86 104.24 C 46.34 105.33 48.82 106.42 51.18 107.75 C 48.54 107.53 45.94 106.99 43.38 106.29 C 33.76 103.42 23.60 101.52 15.01 96.04 C 12.27 94.18 9.13 91.64 9.21 87.99 C 9.13 84.35 12.15 81.72 14.92 79.87 C 23.30 74.27 33.42 72.73 42.84 69.74 Z" />
<path fill="#fefdf6" opacity="1.00" d=" M 78.29 70.09 C 89.25 66.98 101.98 76.51 101.48 88.04 C 101.43 98.42 91.32 107.45 80.99 106.34 C 71.92 105.44 64.28 97.16 64.46 88.00 C 64.27 79.78 70.41 72.12 78.29 70.09 Z" />
<path fill="#fefdf6" opacity="1.00" d=" M 62.29 117.10 C 62.70 118.08 63.10 119.06 63.50 120.04 C 64.48 122.42 65.55 124.77 66.63 127.12 C 69.21 132.57 72.24 138.74 78.05 141.29 C 82.18 141.88 86.99 142.26 90.49 139.53 C 94.27 136.64 96.59 132.35 98.46 128.07 C 99.51 125.79 100.59 123.53 101.61 121.23 C 102.19 119.91 102.76 118.59 103.32 117.27 C 103.01 118.67 102.70 120.08 102.44 121.50 C 102.04 123.50 101.60 125.49 101.20 127.49 C 97.82 137.21 96.58 147.90 90.53 156.50 C 88.54 159.19 85.64 162.03 82.00 161.64 C 78.82 161.23 76.65 158.46 74.92 156.01 C 69.35 147.46 67.47 137.27 64.52 127.67 C 64.09 125.71 63.65 123.77 63.24 121.81 C 62.90 120.25 62.58 118.68 62.29 117.10 Z" />
</svg>
