<svg width="19" height="19" viewBox="0 0 19 19" fill="currentColor" xmlns="http://www.w3.org/2000/svg">
<path d="M16.0312 5.375H4.15625C3.99878 5.375 3.84776 5.31244 3.73641 5.20109C3.62506 5.08974 3.5625 4.93872 3.5625 4.78125C3.5625 4.62378 3.62506 4.47276 3.73641 4.36141C3.84776 4.25006 3.99878 4.1875 4.15625 4.1875H14.25C14.4075 4.1875 14.5585 4.12494 14.6698 4.01359C14.7812 3.90224 14.8438 3.75122 14.8438 3.59375C14.8438 3.43628 14.7812 3.28526 14.6698 3.17391C14.5585 3.06256 14.4075 3 14.25 3H4.15625C3.68383 3 3.23077 3.18767 2.89672 3.52172C2.56267 3.85577 2.375 4.30883 2.375 4.78125V14.2812C2.375 14.7537 2.56267 15.2067 2.89672 15.5408C3.23077 15.8748 3.68383 16.0625 4.15625 16.0625H16.0312C16.3462 16.0625 16.6482 15.9374 16.8709 15.7147C17.0936 15.492 17.2188 15.1899 17.2188 14.875V6.5625C17.2188 6.24756 17.0936 5.94551 16.8709 5.72281C16.6482 5.50011 16.3462 5.375 16.0312 5.375ZM13.3594 11.3125C13.1832 11.3125 13.011 11.2603 12.8646 11.1624C12.7181 11.0645 12.604 10.9254 12.5365 10.7627C12.4691 10.6 12.4515 10.4209 12.4859 10.2481C12.5202 10.0754 12.6051 9.91666 12.7296 9.79211C12.8542 9.66755 13.0129 9.58273 13.1856 9.54836C13.3584 9.514 13.5375 9.53164 13.7002 9.59904C13.8629 9.66645 14.002 9.78061 14.0999 9.92707C14.1978 10.0735 14.25 10.2457 14.25 10.4219C14.25 10.6581 14.1562 10.8846 13.9891 11.0516C13.8221 11.2187 13.5956 11.3125 13.3594 11.3125Z" />
</svg>
