<svg viewBox="0 0 19 13" fill="currentColor" xmlns="http://www.w3.org/2000/svg">
<path d="M9.29087 8.6479C10.0368 8.0209 10.5719 7.17966 10.8235 6.23825C11.0751 5.29684 11.0311 4.30083 10.6974 3.38529C10.3637 2.46975 9.75655 1.67898 8.95821 1.12023C8.15987 0.561478 7.20899 0.26178 6.23454 0.26178C5.2601 0.26178 4.30922 0.561478 3.51088 1.12023C2.71254 1.67898 2.10536 2.46975 1.77169 3.38529C1.43802 4.30083 1.39401 5.29684 1.64561 6.23825C1.89722 7.17966 2.43228 8.0209 3.17822 8.6479C2.01341 9.17458 1.00399 9.99255 0.247318 11.0229C0.107561 11.2133 0.0491816 11.4515 0.0850223 11.685C0.120863 11.9185 0.247988 12.1282 0.438431 12.2679C0.628874 12.4077 0.867035 12.4661 1.10052 12.4302C1.33401 12.3944 1.54369 12.2672 1.68345 12.0768C2.20724 11.3614 2.8923 10.7796 3.68303 10.3785C4.47377 9.97749 5.34791 9.76847 6.23454 9.76847C7.12118 9.76847 7.99532 9.97749 8.78606 10.3785C9.57679 10.7796 10.2618 11.3614 10.7856 12.0768C10.9254 12.2673 11.1351 12.3946 11.3687 12.4305C11.6022 12.4664 11.8405 12.408 12.031 12.2683C12.2216 12.1285 12.3488 11.9188 12.3847 11.6853C12.4206 11.4517 12.3623 11.2134 12.2225 11.0229C11.4654 9.99269 10.4558 9.17476 9.29087 8.6479ZM3.26579 5.01563C3.26579 4.42847 3.43991 3.85449 3.76612 3.36628C4.09233 2.87808 4.55598 2.49756 5.09845 2.27287C5.64092 2.04817 6.23784 1.98938 6.81372 2.10393C7.3896 2.21848 7.91858 2.50122 8.33377 2.91641C8.74895 3.3316 9.0317 3.86058 9.14625 4.43646C9.2608 5.01234 9.20201 5.60926 8.97731 6.15172C8.75261 6.69419 8.3721 7.15785 7.88389 7.48406C7.39569 7.81027 6.82171 7.98438 6.23454 7.98438C5.44718 7.98438 4.69207 7.6716 4.13532 7.11486C3.57857 6.55811 3.26579 5.80299 3.26579 5.01563ZM18.5623 12.2646C18.468 12.3339 18.361 12.3839 18.2474 12.4118C18.1337 12.4397 18.0157 12.445 17.9001 12.4272C17.7844 12.4095 17.6734 12.3692 17.5733 12.3086C17.4732 12.2479 17.3861 12.1682 17.3169 12.0738C16.7918 11.3598 16.1065 10.779 15.316 10.3781C14.5256 9.97723 13.6521 9.76744 12.7658 9.76563C12.5296 9.76563 12.3031 9.6718 12.136 9.50477C11.969 9.33775 11.8752 9.11122 11.8752 8.87501C11.8752 8.6388 11.969 8.41227 12.136 8.24524C12.3031 8.07822 12.5296 7.98438 12.7658 7.98438C13.1878 7.98363 13.6047 7.89293 13.9889 7.71834C14.373 7.54375 14.7155 7.28927 14.9936 6.97188C15.2716 6.65448 15.4788 6.28146 15.6013 5.87767C15.7239 5.47389 15.7589 5.04863 15.7041 4.63024C15.6494 4.21185 15.506 3.80994 15.2837 3.45131C15.0613 3.09268 14.7651 2.78557 14.4147 2.55045C14.0643 2.31533 13.6678 2.15761 13.2517 2.0878C12.8355 2.01799 12.4093 2.03769 12.0013 2.14559C11.8874 2.17856 11.768 2.18843 11.6502 2.17463C11.5324 2.16084 11.4186 2.12365 11.3153 2.06526C11.2121 2.00686 11.1216 1.92844 11.0491 1.83458C10.9765 1.74073 10.9235 1.63333 10.8931 1.5187C10.8626 1.40407 10.8554 1.28451 10.8717 1.16704C10.8881 1.04957 10.9278 0.93656 10.9884 0.834633C11.0491 0.732706 11.1295 0.64392 11.2249 0.573484C11.3203 0.503049 11.4289 0.452383 11.5442 0.424461C12.5873 0.14807 13.6934 0.235098 14.6805 0.671217C15.6675 1.10734 16.4767 1.86655 16.9747 2.82387C17.4727 3.78119 17.6299 4.87955 17.4204 5.93813C17.2109 6.99672 16.6472 7.95242 15.8221 8.6479C16.9869 9.17458 17.9963 9.99255 18.753 11.0229C18.8918 11.2131 18.9496 11.4504 18.9139 11.6831C18.8781 11.9158 18.7517 12.1248 18.5623 12.2646Z" />
</svg>
