<svg width="150" height="150" viewBox="0 0 17 17" fill="currentColor" xmlns="http://www.w3.org/2000/svg">
<path d="M9.31607 10.9477V17H7.69224V13.9128C7.69224 13.5783 7.55943 13.2574 7.32268 13.0207L3.99749 9.68478C3.76074 9.44803 3.44027 9.31522 3.10536 9.31522H0V7.68604H6.05357C6.39467 7.68604 6.72256 7.82132 6.96385 8.06343L7.69224 8.791L8.9395 10.0383C9.18078 10.2795 9.31607 10.6066 9.31607 10.9477Z" />
<path d="M7.68402 6.05233V0H9.30785V3.08721C9.30785 3.42171 9.44066 3.7426 9.6774 3.97934L13.0022 7.31485C13.2389 7.5516 13.5594 7.6844 13.8943 7.6844H17.0001V9.31401H10.9465C10.6054 9.31401 10.2775 9.17872 10.0362 8.93661L9.30785 8.20904L8.06059 6.96179C7.81931 6.7205 7.68402 6.39343 7.68402 6.05233Z" />
<path d="M4.9956 5.89183C5.56621 5.89183 6.02879 5.42925 6.02879 4.85863C6.02879 4.28802 5.56621 3.82544 4.9956 3.82544C4.42498 3.82544 3.9624 4.28802 3.9624 4.85863C3.9624 5.42925 4.42498 5.89183 4.9956 5.89183Z" />
<path d="M11.9125 13.2035C12.4831 13.2035 12.9457 12.7409 12.9457 12.1703C12.9457 11.5997 12.4831 11.1371 11.9125 11.1371C11.3418 11.1371 10.8793 11.5997 10.8793 12.1703C10.8793 12.7409 11.3418 13.2035 11.9125 13.2035Z" />
</svg>
