<?xml version="1.0" encoding="utf-8"?>
<svg viewBox="219.781 223.7477 25.9962 24.001" xmlns="http://www.w3.org/2000/svg">
  <defs>
    <linearGradient id="paint0_linear_97_80" x1="-6.37037" y1="10.3519" x2="68.0834" y2="93.5648" gradientUnits="userSpaceOnUse">
      <stop stop-color="#666666"/>
      <stop offset="0.7566" stop-color="#CCCCCC" stop-opacity="0.5"/>
    </linearGradient>
  </defs>
   <g filter="url(#filter0_b_97_80)" fill="url(#paint0_linear_97_80)">
  <path d="M16.758,21.401c0,0,4.496,4.496,4.819,4.819c1.04,1.04,2.725,1.04,3.764,0c1.04-1.04,1.04-2.725,0-3.765  c-0.323-0.323-4.819-4.819-4.819-4.819L16.758,21.401z" transform="matrix(1, 0, 0, 1, 217.7809938457756, 220.74771447103785)"/>
  <path d="M23.998,11.003l-3.201-0.8l-0.8-3.201l3.706-3.706c-2.129-0.677-4.551-0.176-6.24,1.512c-2.41,2.41-1.639,5.547,0.772,7.957  c2.41,2.41,5.547,3.182,7.957,0.771c1.689-1.689,2.19-4.111,1.512-6.239L23.998,11.003z" transform="matrix(1, 0, 0, 1, 217.7809938457756, 220.74771447103785)"/>
  <polygon points="12.5,11.5 9,8 8,5 4,3 2,5 4,9 7,10 10.5,13.5 " transform="matrix(1, 0, 0, 1, 217.7809938457756, 220.74771447103785)"/>
  <path d="M 16.709 10.758 C 13.345 14.122 5.243 21.515 4.879 21.879 C 3.707 23.051 3.707 24.95 4.879 26.122 C 6.051 27.294 7.95 27.294 9.122 26.122 C 9.486 25.758 17.267 17.848 20.631 14.484 C 20.628 14.475 18.239 13.489 16.709 10.758 Z M 7 25 C 6.448 25 6 24.552 6 24 C 6 23.448 6.448 23 7 23 C 7.552 23 8 23.448 8 24 C 8 24.552 7.552 25 7 25 Z" transform="matrix(1, 0, 0, 1, 217.7809938457756, 220.74771447103785)"/>
  </g>
</svg>