<?xml version="1.0" encoding="UTF-8" ?>
<!DOCTYPE svg PUBLIC "-//W3C//DTD SVG 1.1//EN" "http://www.w3.org/Graphics/SVG/1.1/DTD/svg11.dtd">
<svg width="735pt" height="165pt" viewBox="0 0 735 165" version="1.1" xmlns="http://www.w3.org/2000/svg">
<g id="#ffffffff">
</g>
<g id="#011f05ff">
<path fill="#011f05" opacity="1.00" d=" M 266.52 1.83 C 270.78 0.45 275.45 0.74 279.85 1.32 C 286.87 3.40 293.04 8.55 295.69 15.49 C 301.36 27.07 293.91 42.16 282.03 46.23 C 275.98 48.30 268.92 48.12 263.25 45.00 C 253.62 40.15 248.41 28.03 251.52 17.71 C 253.42 10.27 259.47 4.53 266.52 1.83 Z" />
<path fill="#011f05" opacity="1.00" d=" M 506.32 14.49 C 510.69 11.59 515.74 9.59 521.04 9.47 C 533.67 8.79 546.47 9.25 558.92 11.59 C 558.96 15.64 557.82 19.57 556.73 23.43 C 554.63 33.38 552.39 43.30 549.84 53.14 C 542.80 50.94 535.70 48.60 528.28 48.13 C 520.15 46.83 510.94 47.95 504.46 53.37 C 504.42 53.91 504.33 55.00 504.29 55.54 C 521.71 55.46 539.14 55.51 556.56 55.51 C 556.65 60.15 556.47 64.78 556.69 69.41 C 549.40 69.99 542.07 69.48 534.77 69.68 C 534.77 99.25 534.66 128.82 534.83 158.38 C 521.01 158.73 507.17 158.45 493.35 158.52 C 493.27 128.93 493.34 99.34 493.31 69.75 C 490.32 69.66 487.32 69.64 484.33 69.66 C 484.22 64.94 484.23 60.22 484.31 55.51 C 487.16 54.93 491.89 57.16 493.03 53.35 C 493.78 48.84 492.90 44.14 493.94 39.64 C 494.94 35.83 494.84 31.74 496.57 28.14 C 498.78 23.00 501.44 17.58 506.32 14.49 Z" />
<path fill="#011f05" opacity="1.00" d=" M 6.38 11.86 C 20.47 11.41 34.60 11.58 48.69 11.77 C 48.69 30.86 48.48 49.96 48.80 69.04 C 51.08 67.22 52.48 64.62 54.46 62.52 C 68.24 47.15 94.52 45.10 110.25 58.62 C 119.14 66.09 123.72 77.35 125.97 88.49 C 127.72 98.21 127.55 108.23 126.62 118.05 C 124.59 130.43 120.16 143.05 110.93 151.94 C 98.29 163.98 77.49 166.70 62.56 157.39 C 56.85 154.33 53.17 148.83 48.81 144.24 C 48.45 149.27 48.85 154.32 48.45 159.34 C 34.51 159.31 20.57 159.36 6.62 159.32 C 6.19 110.17 6.67 61.01 6.38 11.86 M 58.44 88.66 C 55.12 91.07 52.32 94.70 52.03 98.90 C 51.54 104.52 51.49 110.24 52.41 115.82 C 53.77 119.29 55.85 122.77 59.54 124.12 C 67.24 126.78 77.09 125.25 82.21 118.42 C 88.24 108.97 86.37 93.80 75.57 88.59 C 70.04 87.10 63.95 87.00 58.44 88.66 Z" />
<path fill="#011f05" opacity="1.00" d=" M 304.49 12.11 C 306.95 11.54 309.49 11.58 312.00 11.60 C 323.59 11.70 335.19 11.50 346.78 11.71 C 346.74 56.48 346.78 101.24 346.76 146.00 C 346.74 150.46 346.92 154.92 346.49 159.37 C 332.57 159.24 318.64 159.43 304.71 159.27 C 304.33 110.22 304.77 61.16 304.49 12.11 Z" />
<path fill="#011f05" opacity="1.00" d=" M 435.32 11.88 C 449.26 11.36 463.24 11.64 477.20 11.74 C 477.27 60.63 477.23 109.51 477.22 158.40 C 463.30 158.70 449.37 158.46 435.45 158.52 C 435.33 153.29 435.61 148.04 435.20 142.81 C 431.26 148.62 426.81 154.38 420.46 157.68 C 411.85 162.97 401.23 163.92 391.48 162.02 C 381.04 159.65 371.83 152.80 366.15 143.78 C 360.31 134.79 358.01 124.10 356.46 113.65 C 356.11 104.36 355.54 94.83 358.29 85.81 C 360.87 73.44 367.62 61.40 378.69 54.77 C 393.28 46.72 413.02 48.09 425.65 59.26 C 429.48 62.37 432.11 66.58 435.19 70.35 C 435.64 50.87 435.40 31.36 435.32 11.88 M 408.33 88.48 C 402.26 90.99 398.22 97.44 398.42 103.98 C 398.42 108.16 398.11 112.66 400.30 116.41 C 403.44 122.88 411.02 125.91 417.92 125.27 C 424.37 125.62 430.85 120.59 431.38 114.01 C 431.96 108.69 431.93 103.29 431.26 97.98 C 430.80 93.16 427.00 88.36 422.00 87.88 C 417.47 87.23 412.77 87.31 408.33 88.48 Z" />
<path fill="#011f05" opacity="1.00" d=" M 563.68 11.65 C 577.54 11.61 591.39 11.60 605.25 11.65 C 605.28 60.60 605.28 109.55 605.25 158.50 C 591.40 158.56 577.54 158.55 563.69 158.50 C 563.66 109.55 563.67 60.60 563.68 11.65 Z" />
<path fill="#011f05" opacity="1.00" d=" M 657.47 50.95 C 671.38 48.70 686.39 49.04 699.15 55.64 C 711.67 61.53 721.32 73.00 725.17 86.26 C 727.22 91.28 727.19 96.76 728.32 101.99 C 729.22 107.96 727.78 113.84 726.96 119.71 C 724.45 132.59 717.57 145.01 706.57 152.48 C 698.80 158.13 689.49 161.26 680.07 162.64 C 672.12 162.82 663.92 163.60 656.22 161.19 C 641.99 158.01 628.77 148.94 622.03 135.81 C 615.09 123.41 614.63 108.74 615.95 94.94 C 617.83 81.61 624.92 68.96 635.65 60.77 C 642.16 56.03 649.63 52.73 657.47 50.95 M 665.50 91.77 C 660.71 93.90 656.58 98.50 656.56 103.96 C 656.48 107.81 656.30 112.17 658.93 115.31 C 663.97 122.94 676.09 123.86 682.54 117.53 C 684.30 115.71 686.07 113.64 686.28 110.99 C 687.34 104.92 686.89 97.33 681.20 93.68 C 676.72 90.38 670.65 90.19 665.50 91.77 Z" />
<path fill="#011f05" opacity="1.00" d=" M 200.49 54.63 C 215.08 54.78 229.68 54.61 244.27 54.72 C 244.49 89.57 244.47 124.44 244.28 159.29 C 229.68 159.41 215.09 159.24 200.50 159.38 C 200.02 153.27 199.69 146.95 201.79 141.08 C 203.22 132.93 207.09 125.45 208.63 117.35 C 208.18 117.43 207.29 117.59 206.85 117.67 C 203.31 128.09 200.12 138.64 196.13 148.90 C 193.65 155.32 187.93 159.95 181.71 162.52 C 174.91 164.46 167.66 164.85 160.68 163.69 C 151.76 162.96 143.90 156.35 140.81 148.07 C 138.40 142.75 138.43 136.76 137.69 131.06 C 137.65 105.90 137.66 80.73 137.69 55.57 C 151.62 55.43 165.56 55.50 179.49 55.53 C 179.57 75.37 179.48 95.21 179.53 115.05 C 179.55 119.38 179.77 124.01 182.41 127.64 C 185.03 127.67 187.80 128.17 190.33 127.27 C 195.93 123.78 197.40 116.89 198.87 110.94 C 201.52 92.29 199.42 73.38 200.49 54.63 Z" />
<path fill="#011f05" opacity="1.00" d=" M 253.39 55.51 C 267.21 55.52 281.04 55.43 294.86 55.56 C 294.80 89.86 294.81 124.15 294.86 158.45 C 281.04 158.63 267.21 158.49 253.39 158.52 C 253.35 124.19 253.34 89.85 253.39 55.51 Z" />
</g>
</svg>
