<svg width="253" height="29" viewBox="0 0 253 30" fill="currentColor" xmlns="http://www.w3.org/2000/svg">
<path d="M250.518 4.93124C250.518 4.13196 250.325 3.88219 249.799 3.7466V3.72519C250.34 3.5896 250.6 3.23992 250.6 2.71896C250.6 1.99105 250.059 1.59141 249.103 1.59141H247.273V5.73051H248.006V4.07487H248.903C249.57 4.07487 249.792 4.26042 249.792 5.02401C249.792 5.3166 249.844 5.6306 249.918 5.73051H250.659C250.563 5.58778 250.518 5.32374 250.518 4.93124ZM248.006 3.40405V2.26223H249.051C249.629 2.26223 249.859 2.4906 249.859 2.78319C249.859 3.16142 249.577 3.40405 248.992 3.40405H248.006ZM250.518 4.93124C250.518 4.13196 250.325 3.88219 249.799 3.7466V3.72519C250.34 3.5896 250.6 3.23992 250.6 2.71896C250.6 1.99105 250.059 1.59141 249.103 1.59141H247.273V5.73051H248.006V4.07487H248.903C249.57 4.07487 249.792 4.26042 249.792 5.02401C249.792 5.3166 249.844 5.6306 249.918 5.73051H250.659C250.563 5.58778 250.518 5.32374 250.518 4.93124ZM248.006 3.40405V2.26223H249.051C249.629 2.26223 249.859 2.4906 249.859 2.78319C249.859 3.16142 249.577 3.40405 248.992 3.40405H248.006ZM248.88 0.00713638C246.82 0.00713638 245.116 1.61282 245.116 3.59673C245.116 5.64488 246.806 7.24342 248.88 7.24342C250.955 7.24342 252.63 5.5521 252.63 3.59673C252.63 1.64137 251.037 0.00713638 248.88 0.00713638ZM248.91 6.52265C247.124 6.52265 245.909 5.12392 245.909 3.63242C245.909 2.11237 247.124 0.727911 248.91 0.727911C250.437 0.727911 251.844 1.96964 251.852 3.59673C251.852 5.33087 250.444 6.52265 248.918 6.52265H248.91ZM249.799 3.73946V3.71805C250.34 3.58246 250.6 3.23278 250.6 2.71182C250.6 1.98391 250.059 1.58428 249.103 1.58428H247.273V5.72338H248.006V4.06774H248.903C249.57 4.06774 249.792 4.25328 249.792 5.01687C249.792 5.30947 249.844 5.62347 249.918 5.72338H250.659C250.563 5.58065 250.518 5.3166 250.518 4.9241C250.518 4.12483 250.325 3.87505 249.799 3.73946ZM248.006 3.40405V2.26223H249.051C249.629 2.26223 249.859 2.4906 249.859 2.78319C249.859 3.16142 249.577 3.40405 248.992 3.40405H248.006ZM250.518 4.93124C250.518 4.13196 250.325 3.88219 249.799 3.7466V3.72519C250.34 3.5896 250.6 3.23992 250.6 2.71896C250.6 1.99105 250.059 1.59141 249.103 1.59141H247.273V5.73051H248.006V4.07487H248.903C249.57 4.07487 249.792 4.26042 249.792 5.02401C249.792 5.3166 249.844 5.6306 249.918 5.73051H250.659C250.563 5.58778 250.518 5.32374 250.518 4.93124ZM248.006 3.40405V2.26223H249.051C249.629 2.26223 249.859 2.4906 249.859 2.78319C249.859 3.16142 249.577 3.40405 248.992 3.40405H248.006ZM250.518 4.93124C250.518 4.13196 250.325 3.88219 249.799 3.7466V3.72519C250.34 3.5896 250.6 3.23992 250.6 2.71896C250.6 1.99105 250.059 1.59141 249.103 1.59141H247.273V5.73051H248.006V4.07487H248.903C249.57 4.07487 249.792 4.26042 249.792 5.02401C249.792 5.3166 249.844 5.6306 249.918 5.73051H250.659C250.563 5.58778 250.518 5.32374 250.518 4.93124ZM248.006 3.40405V2.26223H249.051C249.629 2.26223 249.859 2.4906 249.859 2.78319C249.859 3.16142 249.577 3.40405 248.992 3.40405H248.006Z" />
<path d="M231.971 3.95359C231.119 3.95359 230.304 3.62532 229.703 3.04727L227.325 0.756494C226.843 0.292629 226.184 0.0285832 225.502 0.0285832H201.39C200.708 0.0357195 200.048 0.299766 199.567 0.76363L192.446 7.62883C191.964 8.09269 191.69 8.72783 191.69 9.38438V25.2414H198.9C199.752 25.2414 200.567 25.5697 201.167 26.1477L203.546 28.4385C204.035 28.9024 204.68 29.1593 205.369 29.1593H229.481C230.17 29.1521 230.815 28.8952 231.304 28.4242L238.425 21.559C238.914 21.0952 239.181 20.4672 239.181 19.8035V3.95359H231.971ZM229.792 5.13109V24.0568L201.086 24.0639V5.13823L229.792 5.13109Z" />
<path d="M118.182 0.0214374H108.675V29.252H118.182V0.0214374Z" />
<path d="M94.0036 0.770767C93.5071 0.292629 92.8402 0.0285832 92.1362 0.0285832H64.0448C63.3409 0.0357195 62.6814 0.299766 62.1849 0.777903L55.1158 7.55746C54.6193 8.02846 54.3377 8.68501 54.3377 9.35583V29.2306H63.8522V5.25241L92.3141 5.24528V29.2164H101.836V9.34869C101.836 8.67074 101.554 8.0356 101.058 7.55033L94.011 0.770767H94.0036Z" />
<path d="M35.5385 0.7923C35.042 0.314162 34.3751 0.0501165 33.6712 0.0501165H9.60339C8.90685 0.0572529 8.22513 0.335572 7.72866 0.806573L0.763233 7.57186C0.274171 8.05 0 8.68513 0 9.36309V20.0034C0 20.6743 0.288991 21.3308 0.785463 21.8089L7.78053 28.4814C8.277 28.9524 8.93649 29.2165 9.63303 29.2165L28.3508 29.2379V24.0212H9.51447V5.26681L37.9764 5.25967V29.2736H47.4983V3.98226H40.1105C39.3102 3.98226 38.5469 3.6754 37.9838 3.13303L35.5459 0.785163L35.5385 0.7923Z" />
<path d="M177.033 0.742183C176.529 0.264046 175.87 0 175.166 0H164.221C163.517 0 162.858 0.271182 162.354 0.74932L159.708 3.29701C159.278 3.71092 158.693 3.94642 158.078 3.94642H150.572C149.964 3.94642 149.379 3.71805 148.941 3.29701L146.296 0.74932C145.8 0.271182 145.133 0.00713638 144.429 0.00713638H134.729C134.025 0.00713638 133.366 0.278319 132.862 0.756456L125.785 7.5717C125.289 8.04983 125.015 8.69211 125.015 9.37006V29.2734H134.529V5.23096H149.579V29.2449H159.501V5.22383H174.951L175.262 29.2377H184.769V9.26302C184.769 8.58506 184.495 7.94993 183.998 7.46465L177.018 0.74932L177.033 0.742183Z" />
</svg>
